<?xml version="1.0" encoding="UTF-8" standalone="no"?>
<svg
  xmlns:dc="http://purl.org/dc/elements/1.1/"
  xmlns:cc="http://creativecommons.org/ns#"
  xmlns:rdf="http://www.w3.org/1999/02/22-rdf-syntax-ns#"
  xmlns:svg="http://www.w3.org/2000/svg"
  xmlns="http://www.w3.org/2000/svg"
  viewBox="0 0 793.33331 1122.6667"
  height="1122.6667"
  width="793.33331"
  xml:space="preserve"
  id="svg2"
  version="1.1"
>
  <metadata id="metadata8">
    <rdf:RDF
      ><cc:Work rdf:about=""
        ><dc:format>image/svg+xml</dc:format><dc:type rdf:resource="http://purl.org/dc/dcmitype/StillImage" /></cc:Work
    ></rdf:RDF>
  </metadata>
  <defs id="defs6">
    <clipPath id="clipPath18" clipPathUnits="userSpaceOnUse">
      <path id="path16" d="M 733,0 H 3990 V 6212 H 733 V 0" />
    </clipPath>
  </defs>
  <g transform="matrix(0.16,0,0,-0.16,18.666666,1058.6667)" id="g10">
    <g id="g12">
      <g clip-path="url(#clipPath18)" id="g14">
        <path
          class="body-part"
          id="head-back"
          style="
            fill: #aaaaaa;
            stroke: #ff0000;
            stroke-width: 6;
            stroke-linecap: round;
            stroke-linejoin: round;
            stroke-miterlimit: 10;
            stroke-dasharray: none;
            stroke-opacity: 1;
          "
          d="m 2361,5232 h -14 l -15,-3 -12,-3 -10,-3 -3,-1 -2,-1 -2,-1 -3,-1 -3,-2 -5,-1 -10,-6 -13,-6 -13,-8 -11,-8 -10,-7 -9,-7 -8,-5 -7,-1 -7,1 -6,4 -5,5 -4,6 -3,6 -3,14 -3,27 -4,26 -3,12 -6,12 -4,4 -7,3 -15,5 -7,4 -6,5 -9,12 -8,14 -6,14 -11,30 -8,29 -2,16 -1,17 1,8 3,8 4,6 6,4 8,2 9,-1 8,-1 h 4 l 3,2 3,2 2,4 2,7 1,8 -1,8 -2,31 1,32 5,30 7,31 5,15 6,14 8,14 9,13 10,12 11,11 25,19 25,18 26,17 14,9 13,7 15,5 16,3 31,1 31,-1 16,-3 15,-5 13,-7 14,-9 26,-17 25,-18 25,-19 11,-11 10,-12 9,-13 8,-14 6,-14 5,-15 7,-31 5,-30 1,-32 -2,-31 -1,-8 1,-8 2,-7 2,-4 3,-2 3,-2 h 4 l 8,1 9,1 8,-2 6,-4 4,-6 3,-8 1,-8 -1,-17 -2,-16 -8,-29 -11,-30 -6,-14 -8,-14 -9,-12 -6,-5 -7,-4 -15,-5 -7,-3 -4,-4 -6,-12 -3,-12 -4,-26 -3,-27 -3,-14 -3,-6 -4,-6 -5,-5 -6,-4 -7,-1 -7,1 -8,5 -9,7 -10,7 -11,8 -13,8 -13,6 -10,6 -5,1 -3,2 -3,1 -2,1 -2,1 -3,1 -10,3 -12,3 -15,3 h -14"
        />
        <path
          class="body-part"
          id="shoulder-right-back"
          style="
            fill: #aaaaaa;
            stroke: #ff0000;
            stroke-width: 6;
            stroke-linecap: round;
            stroke-linejoin: round;
            stroke-miterlimit: 10;
            stroke-dasharray: none;
            stroke-opacity: 1;
          "
          d="m 2879,4560 -13,16 -11,18 -15,16 -4,3 -5,2 h -11 l -10,-2 -9,-6 -15,-15 -15,-16 -17,-14 -17,-12 -18,-11 -18,-11 -19,-9 -10,-4 -11,-3 -5,1 -5,2 -3,4 -3,5 -1,6 1,5 3,10 9,20 9,19 8,19 13,41 12,41 7,20 7,20 9,19 11,18 12,18 14,16 17,13 9,6 9,5 20,7 21,3 21,2 h 21 l 22,-1 10,-3 9,-5 17,-11 16,-14 15,-14 14,-15 14,-17 11,-18 11,-18 9,-19 8,-20 6,-20 12,-41 8,-42 5,-42 3,-21 v -11 l -1,-5 -2,-5 -3,-4 -5,-3 -10,-2 -12,-1 -10,1 -42,7 -20,6 -19,10 -18,11 -17,13 -15,15 -14,17"
        />
        <path
          class="body-part"
          id="upper-arm-right-back"
          style="
            fill: #aaaaaa;
            stroke: #ff0000;
            stroke-width: 6;
            stroke-linecap: round;
            stroke-linejoin: round;
            stroke-miterlimit: 10;
            stroke-dasharray: none;
            stroke-opacity: 1;
          "
          d="m 2863,4393 v 94 l -1,23 v 12 l 2,12 2,5 4,4 3,1 h 3 l 5,-3 14,-19 9,-8 10,-6 18,-14 21,-11 22,-9 11,-3 12,-3 23,-4 h 12 l 11,3 10,5 5,4 6,1 3,-1 2,-1 2,-5 -1,-14 -1,-12 -1,-11 -1,-23 1,-24 10,-93 4,-47 4,-23 7,-22 8,-22 4,-11 2,-12 2,-23 1,-23 1,-12 2,-11 3,-12 1,-6 v -6 l -2,-2 -2,-1 -6,-1 -7,-2 -5,-2 -9,-7 -9,-8 -18,-15 -19,-14 -20,-13 -20,-11 -11,-4 -12,-3 -23,-3 -11,-3 -11,-4 -22,-9 -10,-5 -6,-2 h -6 l -3,1 -1,2 -3,5 -2,13 -5,45 -8,46 -9,47 -7,47 -1,23 -1,23 v 24 l 3,23 7,47 1,23 1,23 2,47"
        />
        <path
          class="body-part"
          id="elbow-right-back"
          style="
            fill: #aaaaaa;
            stroke: #ff0000;
            stroke-width: 6;
            stroke-linecap: round;
            stroke-linejoin: round;
            stroke-miterlimit: 10;
            stroke-dasharray: none;
            stroke-opacity: 1;
          "
          d="m 3026,3984 19,13 18,14 16,17 8,8 9,7 10,5 6,3 5,1 6,-1 5,-3 3,-5 2,-5 2,-23 -1,-12 -1,-11 -2,-12 -3,-11 -9,-21 -5,-10 -7,-10 -7,-8 -9,-8 -9,-7 -10,-6 -20,-11 -20,-12 -20,-12 -41,-20 -21,-9 -22,-6 -12,-1 -6,1 -5,2 -4,4 -2,6 -2,11 -8,46 -1,11 v 12 l 3,11 2,5 3,5 4,4 5,3 12,3 11,4 11,2 23,2 22,5 11,3 11,5 20,11"
        />
        <path
          class="body-part"
          id="forearm-right-back"
          style="
            fill: #aaaaaa;
            stroke: #ff0000;
            stroke-width: 6;
            stroke-linecap: round;
            stroke-linejoin: round;
            stroke-miterlimit: 10;
            stroke-dasharray: none;
            stroke-opacity: 1;
          "
          d="m 3003,3843 22,9 22,10 20,12 21,13 9,7 9,8 7,9 6,10 9,24 2,2 2,1 h 7 l 6,-1 4,-4 5,-11 4,-11 7,-23 7,-23 6,-23 7,-47 10,-46 4,-24 3,-23 6,-48 6,-94 2,-24 3,-24 14,-45 12,-46 2,-12 2,-12 v -6 l -2,-6 -2,-5 -4,-4 -10,-8 -11,-5 -21,-12 -10,-5 -11,-4 -12,-2 h -12 l -24,1 -12,2 -11,4 -21,12 -9,6 -9,8 -8,9 -6,10 -11,22 -20,43 -19,44 -20,43 -44,84 -20,43 -8,23 -7,23 -4,23 -4,24 -2,12 v 7 5 l 3,5 4,4 11,5 24,6 22,7 44,18"
        />
        <path
          class="body-part"
          id="wrist-right-back"
          style="
            fill: #aaaaaa;
            stroke: #ff0000;
            stroke-width: 6;
            stroke-linecap: round;
            stroke-linejoin: round;
            stroke-miterlimit: 10;
            stroke-dasharray: none;
            stroke-opacity: 1;
          "
          d="m 3274,3298 2,-11 4,-10 11,-20 5,-10 8,-10 4,-4 2,-5 1,-5 v -6 -6 -3 l -2,-2 -6,-2 h -5 -12 l -11,-1 -22,-4 -23,-5 -10,-3 -11,-5 -10,-5 -11,-4 -11,-2 -11,-1 -12,2 -10,5 -8,7 -7,10 -11,20 -8,21 -4,11 -2,11 -2,23 -2,11 -3,11 -5,10 -6,10 -6,10 -4,10 v 3 l 2,2 2,2 h 3 l 6,-2 5,-2 10,-6 10,-4 11,-2 12,-1 h 23 l 22,2 11,3 11,4 10,5 9,7 9,7 10,6 5,1 h 6 l 6,-1 4,-4 1,-6 1,-6 v -11 l 4,-22 5,-23"
        />
        <path
          class="body-part"
          id="hand-right-back"
          style="
            fill: #aaaaaa;
            stroke: #ff0000;
            stroke-width: 6;
            stroke-linecap: round;
            stroke-linejoin: round;
            stroke-miterlimit: 10;
            stroke-dasharray: none;
            stroke-opacity: 1;
          "
          d="m 3397,3133 15,-16 16,-14 32,-26 33,-27 17,-13 10,-4 10,-2 h 10 l 11,-3 5,-2 3,-4 2,-5 1,-5 -1,-11 -2,-5 -2,-5 -4,-3 -5,-2 -11,-3 -10,-1 -11,-1 -10,1 -10,2 -10,4 -9,6 -8,7 -7,8 -15,15 -7,7 -7,9 -4,2 -6,1 -5,-1 -4,-3 -3,-5 v -5 l 1,-11 6,-20 8,-20 7,-19 6,-21 4,-10 5,-9 11,-18 12,-17 10,-19 17,-38 4,-10 3,-11 v -5 l -1,-5 -3,-5 -3,-4 -5,-3 -5,-2 h -5 -6 l -9,4 -8,7 -7,8 -4,10 -9,19 -19,38 -18,38 -9,19 -10,19 -4,4 -4,3 -4,3 h -6 l -5,-1 -3,-4 -1,-5 2,-6 5,-10 5,-9 9,-19 17,-38 18,-38 16,-39 8,-20 4,-10 3,-10 1,-5 -2,-5 -2,-5 -4,-4 -5,-2 -5,-1 h -11 l -6,1 -4,1 -8,7 -7,9 -5,9 -15,39 -31,79 -8,19 -5,21 -3,10 -2,5 -4,4 -4,2 -5,2 -6,-1 -4,-3 -2,-5 -1,-5 2,-11 6,-20 8,-41 13,-84 1,-10 -2,-11 -4,-9 -3,-4 -5,-4 -4,-2 -6,-1 -10,1 -10,4 -4,4 -3,4 -2,10 v 11 l -1,21 -4,42 -4,42 -3,21 -6,20 -6,21 -2,4 -4,4 -5,3 h -5 l -5,-2 -3,-4 -1,-5 1,-6 2,-21 7,-84 -2,-5 -2,-5 -4,-4 -4,-3 -10,-3 -11,-1 -5,1 -4,3 -3,5 -1,5 -2,11 v 10 l 3,42 v 43 l -3,42 -5,42 -10,83 -5,21 -7,20 -3,10 v 10 l 1,6 3,4 4,4 4,2 21,6 20,9 19,8 20,4 21,4 21,2 21,2 11,-1 10,-2 10,-4 9,-6 16,-14 30,-28"
        />
        <path
          class="body-part"
          id="knee-right-back"
          style="
            fill: #aaaaaa;
            stroke: #ff0000;
            stroke-width: 6;
            stroke-linecap: round;
            stroke-linejoin: round;
            stroke-miterlimit: 10;
            stroke-dasharray: none;
            stroke-opacity: 1;
          "
          d="m 2558,2038 h 80 l 20,2 19,6 18,8 18,10 15,13 5,1 h 2 l 2,-1 3,-4 1,-5 -4,-20 -3,-19 -10,-39 -8,-39 -11,-79 -6,-40 -1,-19 1,-20 -1,-20 -3,-10 -6,-8 -7,-7 -9,-6 -18,-8 -10,-2 -9,-2 h -10 l -10,2 -40,3 -20,1 -20,-2 -39,-10 -19,-3 -10,1 -10,2 -10,3 -9,4 -7,7 -3,4 -1,5 v 10 l 2,10 -1,10 -2,10 -12,38 -11,39 -6,39 -5,40 -1,20 v 20 20 l -1,9 -2,10 -2,10 -2,10 1,5 3,4 5,1 5,-1 39,-8 40,-4 40,-1 h 40"
        />
        <path
          class="body-part"
          id="lower-leg-right-back"
          style="
            fill: #aaaaaa;
            stroke: #ff0000;
            stroke-width: 6;
            stroke-linecap: round;
            stroke-linejoin: round;
            stroke-miterlimit: 10;
            stroke-dasharray: none;
            stroke-opacity: 1;
          "
          d="m 2707,1622 3,-63 v -63 l -1,-64 -4,-31 -8,-31 -17,-61 -6,-31 -4,-31 -9,-63 -4,-31 -4,-32 -4,-31 -7,-31 -8,-31 -6,-31 -6,-30 -1,-17 v -9 l -2,-3 -2,-3 -3,-2 -4,-1 -8,-1 h -16 l -31,5 -62,13 -15,2 h -8 -9 l -1,1 -1,2 1,4 1,8 1,15 -4,127 -2,32 -3,31 -10,63 -4,31 -4,32 -5,63 -5,63 -3,63 v 32 l 2,32 4,31 1,16 1,16 -2,31 -3,32 -1,15 v 16 5 l 1,4 2,2 4,1 4,-1 3,-2 7,-4 16,-4 15,-2 16,-1 16,1 31,4 16,3 16,1 h 16 l 15,-2 16,-1 h 16 l 16,3 7,2 7,5 12,10 6,5 7,3 5,2 3,-1 3,-3 1,-4 1,-16 2,-31 2,-32 1,-32"
        />
        <path
          class="body-part"
          id="ankle-right-back"
          style="
            fill: #aaaaaa;
            stroke: #ff0000;
            stroke-width: 6;
            stroke-linecap: round;
            stroke-linejoin: round;
            stroke-miterlimit: 10;
            stroke-dasharray: none;
            stroke-opacity: 1;
          "
          d="m 2587,826 5,23 7,22 11,21 5,10 1,6 v 6 l -3,5 -2,1 -3,1 -12,-3 -23,1 -46,8 -23,6 -11,2 h -11 -12 -6 l -5,-2 -4,-5 -2,-5 v -12 -23 -12 l -1,-11 -4,-23 -3,-11 -6,-10 -6,-10 -4,-11 -5,-10 -1,-7 2,-2 2,-1 47,1 12,-1 11,-1 11,-3 11,-6 19,-13 10,-6 8,-8 16,-18 16,-16 4,-4 3,-2 2,-1 3,1 2,3 1,6 -2,23 -4,23 -6,22 -4,23 -1,12 1,11"
        />
        <path
          class="body-part"
          id="foot-right-back"
          style="
            fill: #aaaaaa;
            stroke: #ff0000;
            stroke-width: 6;
            stroke-linecap: round;
            stroke-linejoin: round;
            stroke-miterlimit: 10;
            stroke-dasharray: none;
            stroke-opacity: 1;
          "
          d="m 2645,565 -18,26 -10,13 -3,7 -3,7 -2,16 -1,16 -2,16 -2,7 -3,8 -44,45 -26,18 -13,8 -15,6 -15,4 -16,2 h -15 l -17,-1 -8,-2 -3,-1 -2,-3 -3,-8 v -8 l 1,-16 2,-15 1,-32 5,-31 1,-16 v -16 l -2,-31 -4,-31 -6,-31 -1,-16 3,-15 7,-15 5,-7 5,-6 6,-5 6,-4 8,-3 7,-2 16,-2 16,-1 63,2 32,-3 31,-5 16,-2 h 8 l 8,2 6,5 5,6 10,12 10,12 4,7 2,8 1,8 -1,8 -3,7 -5,6 -13,9 -6,5 -5,6 -18,26"
        />
        <path
          class="body-part"
          id="buttocks-right"
          style="
            fill: #aaaaaa;
            stroke: #ff0000;
            stroke-width: 6;
            stroke-linecap: round;
            stroke-linejoin: round;
            stroke-miterlimit: 10;
            stroke-dasharray: none;
            stroke-opacity: 1;
          "
          d="m 2783,2833 8,-4 9,-1 4,1 2,3 v 4 l -1,4 -1,10 -1,8 -1,15 -3,32 -1,33 1,65 -1,65 -1,33 v 33 32 l -1,33 -3,32 -4,33 -10,64 -8,65 -4,32 -5,33 -7,31 -6,32 -3,33 -2,33 -3,32 -2,16 -1,9 -1,3 -3,2 -8,3 -8,1 -17,3 -16,2 -16,1 -16,-1 -16,-3 -15,-6 -15,-8 -14,-9 -14,-10 -24,-23 -22,-24 -20,-26 -21,-25 -22,-23 -49,-43 -12,-11 -11,-13 -9,-13 -8,-15 -5,-15 -2,-16 v -33 l 2,-66 v -65 l 1,-32 1,-16 2,-17 4,-16 5,-16 6,-15 9,-15 9,-14 10,-12 12,-12 13,-9 13,-9 15,-8 30,-13 31,-12 30,-14 29,-16 28,-17 27,-19 25,-20 47,-41 13,-10 14,-9 16,-9 17,-7"
        />
        <path
          class="body-part"
          id="middle-back-right"
          style="
            fill: #aaaaaa;
            stroke: #ff0000;
            stroke-width: 6;
            stroke-linecap: round;
            stroke-linejoin: round;
            stroke-miterlimit: 10;
            stroke-dasharray: none;
            stroke-opacity: 1;
          "
          d="m 2774,4562 32,24 8,5 10,2 h 5 l 5,-1 3,-3 2,-4 1,-5 v -5 l -1,-11 -2,-21 -2,-38 v -39 l -1,-40 -4,-40 -5,-39 -3,-40 -5,-39 -8,-39 -10,-38 -42,-153 -17,-77 -14,-78 -3,-19 -1,-20 v -40 l 2,-39 4,-40 v -9 -11 l -1,-5 -2,-5 -3,-3 -5,-1 -20,-1 h -19 -8 -9 l -10,-1 -9,-2 -9,-3 -9,-4 -17,-10 -32,-26 -31,-25 -14,-14 -12,-15 -11,-17 -12,-16 -14,-14 -15,-12 -7,-4 -8,-2 -4,1 -3,1 -2,2 -1,3 1,4 1,5 3,11 4,12 3,11 5,19 1,18 v 34 l -1,38 -5,79 -5,76 -1,74 1,75 -1,78 v 39 l 1,40 4,39 3,20 5,20 6,18 7,19 9,17 10,17 22,33 23,33 21,34 23,33 12,15 14,14 15,11 17,11 70,38 34,21 31,24"
        />
        <path
          class="body-part"
          id="thigh-right-back"
          style="
            fill: #aaaaaa;
            stroke: #ff0000;
            stroke-width: 6;
            stroke-linecap: round;
            stroke-linejoin: round;
            stroke-miterlimit: 10;
            stroke-dasharray: none;
            stroke-opacity: 1;
          "
          d="m 2805,2793 1,-156 -2,-79 -3,-38 -4,-39 -8,-78 -4,-39 -5,-39 -7,-38 -8,-38 -17,-77 -5,-19 -6,-18 -8,-18 -10,-17 -12,-15 -15,-14 -8,-6 -9,-4 -9,-2 -10,-1 -39,-1 -39,-2 -39,-1 h -39 -20 l -21,2 -11,2 -12,4 -11,5 -9,6 -6,7 -4,8 -3,18 -5,38 -4,39 -2,39 -2,39 v 39 78 l -2,78 -1,78 2,79 3,78 v 39 l 1,21 v 22 24 24 53 l 1,26 1,24 v 20 l 1,18 v 15 13 l 1,12 v 10 l 1,6 v 6 l -1,10 1,10 3,4 3,2 h 5 l 5,-1 6,-8 8,-6 34,-20 17,-9 18,-8 36,-14 36,-17 35,-18 16,-9 16,-12 30,-25 29,-26 30,-26 15,-12 17,-10 19,-7 10,-3 8,-4 6,-8 4,-9 2,-9 v -10"
        />
        <path
          class="body-part"
          id="shoulder-blade-right"
          style="
            fill: #aaaaaa;
            stroke: #ff0000;
            stroke-width: 6;
            stroke-linecap: round;
            stroke-linejoin: round;
            stroke-miterlimit: 10;
            stroke-dasharray: none;
            stroke-opacity: 1;
          "
          d="m 2816,4837 -9,-1 -8,-3 -15,-6 -15,-7 -14,-9 -13,-10 -11,-12 -10,-14 -8,-14 -7,-15 -7,-15 -9,-32 -18,-63 -11,-31 -12,-30 -15,-29 -13,-24 -39,-54 -18,-27 -17,-29 -18,-28 -19,-28 -37,-51 -12,-14 -3,-3 -3,-1 -4,1 -3,3 -2,4 -1,4 1,9 1,16 3,65 8,132 2,65 1,66 3,67 4,68 2,34 v 8 7 13 l -1,28 v 31 l -2,62 -1,33 1,36 2,17 4,17 7,15 9,14 20,27 9,14 6,17 3,3 3,2 h 4 l 4,-1 1,-4 v -5 l -1,-9 -1,-32 1,-17 2,-16 3,-16 5,-16 8,-14 10,-13 26,-20 53,-40 27,-18 28,-18 58,-30 15,-8 15,-6 8,-3 10,-5 9,-6 8,-5 12,-10 5,-3 3,-2 1,-2 v -4 l -3,-3 -4,-1 h -4 l -17,-1"
        />
        <path
          class="body-part"
          id="neck-right-back"
          style="
            fill: #aaaaaa;
            stroke: #ff0000;
            stroke-width: 6;
            stroke-linecap: round;
            stroke-linejoin: round;
            stroke-miterlimit: 10;
            stroke-dasharray: none;
            stroke-opacity: 1;
          "
          d="m 2375,4935 1,-28 1,-28 v -31 l 1,-7 4,-5 5,-3 8,-1 28,1 h 15 l 7,2 5,4 3,6 1,7 -1,14 1,28 v 113 28 l 1,14 3,14 5,13 6,12 6,11 8,12 8,13 9,14 1,7 v 6 l -5,4 -6,4 -14,6 -12,8 -22,16 -12,7 -13,6 -14,7 -7,3 h -6 l -5,-1 -3,-4 -3,-6 -2,-7 -2,-17 v -17 l -1,-16 -1,-13 v -14 l 1,-14 1,-28 1,-28 -1,-112"
        />
        <path
          class="body-part"
          id="upper-spine-right"
          style="
            fill: #aaaaaa;
            stroke: #ff0000;
            stroke-width: 6;
            stroke-linecap: round;
            stroke-linejoin: round;
            stroke-miterlimit: 10;
            stroke-dasharray: none;
            stroke-opacity: 1;
          "
          d="m 2415,4823 -23,-2 h -13 l -2,-1 -1,-2 v -7 l 1,-14 v -13 -24 l -1,-22 v -24 l -1,-49 v -98 l -1,-97 v -194 l -1,-98 v -48 l -1,-13 v -3 l 2,-2 5,-4 6,-1 h 6 l 12,1 12,-1 h 7 l 3,1 2,2 1,12 1,12 2,48 2,97 4,97 6,97 2,49 1,49 v 97 l 1,49 1,24 1,8 v 10 l 1,22 1,9 1,8 v 6 l 1,5 v 7 l -1,4 -4,2 -7,1 h -5 -6 -7 -8"
        />
        <path
          class="body-part"
          id="lower-spine-right"
          style="
            fill: #aaaaaa;
            stroke: #ff0000;
            stroke-width: 6;
            stroke-linecap: round;
            stroke-linejoin: round;
            stroke-miterlimit: 10;
            stroke-dasharray: none;
            stroke-opacity: 1;
          "
          d="m 2427,4074 v 2 4 9 l -1,5 -4,4 -5,1 h -5 -21 -11 l -5,-2 -3,-3 -1,-5 v -6 -11 -20 -42 l 1,-42 v -42 l -1,-84 2,-84 -1,-83 2,-84 -1,-42 v -21 l 1,-20 v -10 l -1,-11 -3,-11 -2,-6 v -2 l 2,-2 5,2 4,2 9,6 7,7 7,8 12,18 9,18 7,20 4,20 3,21 1,22 v 43 l -7,86 -5,84 -2,83 1,84 2,84"
        />
        <path
          class="body-part"
          id="shoulder-left-back"
          style="
            fill: #aaaaaa;
            stroke: #ff0000;
            stroke-width: 6;
            stroke-linecap: round;
            stroke-linejoin: round;
            stroke-miterlimit: 10;
            stroke-dasharray: none;
            stroke-opacity: 1;
          "
          d="m 1843,4560 13,16 11,18 15,16 4,3 5,2 h 11 l 10,-2 9,-6 15,-15 15,-16 17,-14 17,-12 18,-11 18,-11 19,-9 10,-4 11,-3 5,1 5,2 3,4 3,5 1,6 -1,5 -3,10 -9,20 -9,19 -8,19 -13,41 -12,41 -7,20 -7,20 -9,19 -11,18 -12,18 -14,16 -17,13 -9,6 -9,5 -20,7 -21,3 -21,2 h -21 l -22,-1 -10,-3 -9,-5 -17,-11 -16,-14 -15,-14 -14,-15 -14,-17 -11,-18 -11,-18 -9,-19 -8,-20 -6,-20 -12,-41 -8,-42 -5,-42 -3,-21 v -11 l 1,-5 2,-5 3,-4 5,-3 10,-2 12,-1 10,1 42,7 20,6 19,10 18,11 17,13 15,15 14,17"
        />
        <path
          class="body-part"
          id="upper-arm-left-back"
          style="
            fill: #aaaaaa;
            stroke: #ff0000;
            stroke-width: 6;
            stroke-linecap: round;
            stroke-linejoin: round;
            stroke-miterlimit: 10;
            stroke-dasharray: none;
            stroke-opacity: 1;
          "
          d="m 1859,4393 v 94 l 1,23 v 12 l -2,12 -2,5 -4,4 -3,1 h -3 l -5,-3 -14,-19 -9,-8 -10,-6 -18,-14 -21,-11 -22,-9 -11,-3 -12,-3 -23,-4 h -12 l -11,3 -10,5 -5,4 -6,1 -3,-1 -2,-1 -2,-5 1,-14 1,-12 1,-11 1,-23 -1,-24 -10,-93 -4,-47 -4,-23 -7,-22 -8,-22 -4,-11 -2,-12 -2,-23 -1,-23 -1,-12 -2,-11 -3,-12 -1,-6 v -6 l 2,-2 2,-1 6,-1 7,-2 5,-2 9,-7 9,-8 18,-15 19,-14 20,-13 20,-11 11,-4 12,-3 23,-3 11,-3 11,-4 22,-9 10,-5 6,-2 h 6 l 3,1 1,2 3,5 2,13 5,45 8,46 9,47 7,47 1,23 1,23 v 24 l -3,23 -7,47 -1,23 -1,23 -2,47"
        />
        <path
          class="body-part"
          id="elbow-left-back"
          style="
            fill: #aaaaaa;
            stroke: #ff0000;
            stroke-width: 6;
            stroke-linecap: round;
            stroke-linejoin: round;
            stroke-miterlimit: 10;
            stroke-dasharray: none;
            stroke-opacity: 1;
          "
          d="m 1696,3984 -19,13 -18,14 -16,17 -8,8 -9,7 -10,5 -6,3 -5,1 -6,-1 -5,-3 -3,-5 -2,-5 -2,-23 1,-12 1,-11 2,-12 3,-11 9,-21 5,-10 7,-10 7,-8 9,-8 9,-7 10,-6 20,-11 20,-12 20,-12 41,-20 21,-9 22,-6 12,-1 6,1 5,2 4,4 2,6 2,11 8,46 1,11 v 12 l -3,11 -2,5 -3,5 -4,4 -5,3 -12,3 -11,4 -11,2 -23,2 -22,5 -11,3 -11,5 -20,11"
        />
        <path
          class="body-part"
          id="forearm-left-back"
          style="
            fill: #aaaaaa;
            stroke: #ff0000;
            stroke-width: 6;
            stroke-linecap: round;
            stroke-linejoin: round;
            stroke-miterlimit: 10;
            stroke-dasharray: none;
            stroke-opacity: 1;
          "
          d="m 1719,3843 -22,9 -22,10 -20,12 -21,13 -9,7 -9,8 -7,9 -6,10 -9,24 -2,2 -2,1 h -7 l -6,-1 -4,-4 -5,-11 -4,-11 -7,-23 -7,-23 -6,-23 -7,-47 -10,-46 -4,-24 -3,-23 -6,-48 -6,-94 -2,-24 -3,-24 -14,-45 -12,-46 -2,-12 -2,-12 v -6 l 2,-6 2,-5 4,-4 10,-8 11,-5 21,-12 10,-5 11,-4 12,-2 h 12 l 24,1 12,2 11,4 21,12 9,6 9,8 8,9 6,10 11,22 20,43 19,44 20,43 44,84 20,43 8,23 7,23 4,23 4,24 2,12 v 7 5 l -3,5 -4,4 -11,5 -24,6 -22,7 -44,18"
        />
        <path
          class="body-part"
          id="wrist-left-back"
          style="
            fill: #aaaaaa;
            stroke: #ff0000;
            stroke-width: 6;
            stroke-linecap: round;
            stroke-linejoin: round;
            stroke-miterlimit: 10;
            stroke-dasharray: none;
            stroke-opacity: 1;
          "
          d="m 1448,3298 -2,-11 -4,-10 -11,-20 -5,-10 -8,-10 -4,-4 -2,-5 -1,-5 v -6 -6 -3 l 2,-2 6,-2 h 5 12 l 11,-1 22,-4 23,-5 10,-3 11,-5 10,-5 11,-4 11,-2 11,-1 12,2 10,5 8,7 7,10 11,20 8,21 4,11 2,11 2,23 2,11 3,11 5,10 6,10 6,10 4,10 v 3 l -2,2 -2,2 h -3 l -6,-2 -5,-2 -10,-6 -10,-4 -11,-2 -12,-1 h -23 l -22,2 -11,3 -11,4 -10,5 -9,7 -9,7 -10,6 -5,1 h -6 l -6,-1 -4,-4 -1,-6 -1,-6 v -11 l -4,-22 -5,-23"
        />
        <path
          class="body-part"
          id="hand-left-back"
          style="
            fill: #aaaaaa;
            stroke: #ff0000;
            stroke-width: 6;
            stroke-linecap: round;
            stroke-linejoin: round;
            stroke-miterlimit: 10;
            stroke-dasharray: none;
            stroke-opacity: 1;
          "
          d="m 1325,3133 -15,-16 -16,-14 -32,-26 -33,-27 -17,-13 -10,-4 -10,-2 h -10 l -11,-3 -5,-2 -3,-4 -2,-5 -1,-5 1,-11 2,-5 2,-5 4,-3 5,-2 11,-3 10,-1 11,-1 10,1 10,2 10,4 9,6 8,7 7,8 15,15 7,7 7,9 4,2 6,1 5,-1 4,-3 3,-5 v -5 l -1,-11 -6,-20 -8,-20 -7,-19 -6,-21 -4,-10 -5,-9 -11,-18 -12,-17 -10,-19 -17,-38 -4,-10 -3,-11 v -5 l 1,-5 3,-5 3,-4 5,-3 5,-2 h 5 6 l 9,4 8,7 7,8 4,10 9,19 19,38 18,38 9,19 10,19 4,4 4,3 4,3 h 6 l 5,-1 3,-4 1,-5 -2,-6 -5,-10 -5,-9 -9,-19 -17,-38 -18,-38 -16,-39 -8,-20 -4,-10 -3,-10 -1,-5 2,-5 2,-5 4,-4 5,-2 5,-1 h 11 l 6,1 4,1 8,7 7,9 5,9 15,39 31,79 8,19 5,21 3,10 2,5 4,4 4,2 5,2 6,-1 4,-3 2,-5 1,-5 -2,-11 -6,-20 -8,-41 -13,-84 -1,-10 2,-11 4,-9 3,-4 5,-4 4,-2 6,-1 10,1 10,4 4,4 3,4 2,10 v 11 l 1,21 4,42 4,42 3,21 6,20 6,21 2,4 4,4 5,3 h 5 l 5,-2 3,-4 1,-5 -1,-6 -2,-21 -7,-84 2,-5 2,-5 4,-4 4,-3 10,-3 11,-1 5,1 4,3 3,5 1,5 2,11 v 10 l -3,42 v 43 l 3,42 5,42 10,83 5,21 7,20 3,10 v 10 l -1,6 -3,4 -4,4 -4,2 -21,6 -20,9 -19,8 -20,4 -21,4 -21,2 -21,2 -11,-1 -10,-2 -10,-4 -9,-6 -16,-14 -30,-28"
        />
        <path
          class="body-part"
          id="knee-left-back"
          style="
            fill: #aaaaaa;
            stroke: #ff0000;
            stroke-width: 6;
            stroke-linecap: round;
            stroke-linejoin: round;
            stroke-miterlimit: 10;
            stroke-dasharray: none;
            stroke-opacity: 1;
          "
          d="m 2164,2038 h -80 l -20,2 -19,6 -18,8 -18,10 -15,13 -5,1 h -2 l -2,-1 -3,-4 -1,-5 4,-20 3,-19 10,-39 8,-39 11,-79 6,-40 1,-19 -1,-20 1,-20 3,-10 6,-8 7,-7 9,-6 18,-8 10,-2 9,-2 h 10 l 10,2 40,3 20,1 20,-2 39,-10 19,-3 10,1 10,2 10,3 9,4 7,7 3,4 1,5 v 10 l -2,10 1,10 2,10 12,38 11,39 6,39 5,40 1,20 v 20 20 l 1,9 2,10 2,10 2,10 -1,5 -3,4 -5,1 -5,-1 -39,-8 -40,-4 -40,-1 h -40"
        />
        <path
          class="body-part"
          id="lower-leg-left-back"
          style="
            fill: #aaaaaa;
            stroke: #ff0000;
            stroke-width: 6;
            stroke-linecap: round;
            stroke-linejoin: round;
            stroke-miterlimit: 10;
            stroke-dasharray: none;
            stroke-opacity: 1;
          "
          d="m 2015,1622 -3,-63 v -63 l 1,-64 4,-31 8,-31 17,-61 6,-31 4,-31 9,-63 4,-31 4,-32 4,-31 7,-31 8,-31 6,-31 6,-30 1,-17 v -9 l 2,-3 2,-3 3,-2 4,-1 8,-1 h 16 l 31,5 62,13 15,2 h 8 9 l 1,1 1,2 -1,4 -1,8 -1,15 4,127 2,32 3,31 10,63 4,31 4,32 5,63 5,63 3,63 v 32 l -2,32 -4,31 -1,16 -1,16 2,31 3,32 1,15 v 16 5 l -1,4 -2,2 -4,1 -4,-1 -3,-2 -7,-4 -16,-4 -15,-2 -16,-1 -16,1 -31,4 -16,3 -16,1 h -16 l -15,-2 -16,-1 h -16 l -16,3 -7,2 -7,5 -12,10 -6,5 -7,3 -5,2 -3,-1 -3,-3 -1,-4 -1,-16 -2,-31 -2,-32 -1,-32"
        />
        <path
          class="body-part"
          id="ankle-left-back"
          style="
            fill: #aaaaaa;
            stroke: #ff0000;
            stroke-width: 6;
            stroke-linecap: round;
            stroke-linejoin: round;
            stroke-miterlimit: 10;
            stroke-dasharray: none;
            stroke-opacity: 1;
          "
          d="m 2135,826 -5,23 -7,22 -11,21 -5,10 -1,6 v 6 l 3,5 2,1 3,1 12,-3 23,1 46,8 23,6 11,2 h 11 12 6 l 5,-2 4,-5 2,-5 v -12 -23 -12 l 1,-11 4,-23 3,-11 6,-10 6,-10 4,-11 5,-10 1,-7 -2,-2 -2,-1 -47,1 -12,-1 -11,-1 -11,-3 -11,-6 -19,-13 -10,-6 -8,-8 -16,-18 -16,-16 -4,-4 -3,-2 -2,-1 -3,1 -2,3 -1,6 2,23 4,23 6,22 4,23 1,12 -1,11"
        />
        <path
          class="body-part"
          id="foot-left-back"
          style="
            fill: #aaaaaa;
            stroke: #ff0000;
            stroke-width: 6;
            stroke-linecap: round;
            stroke-linejoin: round;
            stroke-miterlimit: 10;
            stroke-dasharray: none;
            stroke-opacity: 1;
          "
          d="m 2077,565 18,26 10,13 3,7 3,7 2,16 1,16 2,16 2,7 3,8 44,45 26,18 13,8 15,6 15,4 16,2 h 15 l 17,-1 8,-2 3,-1 2,-3 3,-8 v -8 l -1,-16 -2,-15 -1,-32 -5,-31 -1,-16 v -16 l 2,-31 4,-31 6,-31 1,-16 -3,-15 -7,-15 -5,-7 -5,-6 -6,-5 -6,-4 -8,-3 -7,-2 -16,-2 -16,-1 -63,2 -32,-3 -31,-5 -16,-2 h -8 l -8,2 -6,5 -5,6 -10,12 -10,12 -4,7 -2,8 -1,8 1,8 3,7 5,6 13,9 6,5 5,6 18,26"
        />
        <path
          class="body-part"
          id="buttocks-left-back"
          style="
            fill: #aaaaaa;
            stroke: #ff0000;
            stroke-width: 6;
            stroke-linecap: round;
            stroke-linejoin: round;
            stroke-miterlimit: 10;
            stroke-dasharray: none;
            stroke-opacity: 1;
          "
          d="m 1939,2833 -8,-4 -9,-1 -4,1 -2,3 v 4 l 1,4 1,10 1,8 1,15 3,32 1,33 -1,65 1,65 1,33 v 33 32 l 1,33 3,32 4,33 10,64 8,65 4,32 5,33 7,31 6,32 3,33 2,33 3,32 2,16 1,9 1,3 3,2 8,3 8,1 17,3 16,2 16,1 16,-1 16,-3 15,-6 15,-8 14,-9 14,-10 24,-23 22,-24 20,-26 21,-25 22,-23 49,-43 12,-11 11,-13 9,-13 8,-15 5,-15 2,-16 v -33 l -2,-66 v -65 l -1,-32 -1,-16 -2,-17 -4,-16 -5,-16 -6,-15 -9,-15 -9,-14 -10,-12 -12,-12 -13,-9 -13,-9 -15,-8 -30,-13 -31,-12 -30,-14 -29,-16 -28,-17 -27,-19 -25,-20 -47,-41 -13,-10 -14,-9 -16,-9 -17,-7"
        />
        <path
          class="body-part"
          id="middle-back-left"
          style="
            fill: #aaaaaa;
            stroke: #ff0000;
            stroke-width: 6;
            stroke-linecap: round;
            stroke-linejoin: round;
            stroke-miterlimit: 10;
            stroke-dasharray: none;
            stroke-opacity: 1;
          "
          d="m 1948,4562 -32,24 -8,5 -10,2 h -5 l -5,-1 -3,-3 -2,-4 -1,-5 v -5 l 1,-11 2,-21 2,-38 v -39 l 1,-40 4,-40 5,-39 3,-40 5,-39 8,-39 10,-38 42,-153 17,-77 14,-78 3,-19 1,-20 v -40 l -2,-39 -4,-40 v -9 -11 l 1,-5 2,-5 3,-3 5,-1 20,-1 h 19 8 9 l 10,-1 9,-2 9,-3 9,-4 17,-10 32,-26 31,-25 14,-14 12,-15 11,-17 12,-16 14,-14 15,-12 7,-4 8,-2 4,1 3,1 2,2 1,3 -1,4 -1,5 -3,11 -4,12 -3,11 -5,19 -1,18 v 34 l 1,38 5,79 5,76 1,74 -1,75 1,78 v 39 l -1,40 -4,39 -3,20 -5,20 -6,18 -7,19 -9,17 -10,17 -22,33 -23,33 -21,34 -23,33 -12,15 -14,14 -15,11 -17,11 -70,38 -34,21 -31,24"
        />
        <path
          class="body-part"
          id="thigh-left-back"
          style="
            fill: #aaaaaa;
            stroke: #ff0000;
            stroke-width: 6;
            stroke-linecap: round;
            stroke-linejoin: round;
            stroke-miterlimit: 10;
            stroke-dasharray: none;
            stroke-opacity: 1;
          "
          d="m 1917,2793 -1,-156 2,-79 3,-38 4,-39 8,-78 4,-39 5,-39 7,-38 8,-38 17,-77 5,-19 6,-18 8,-18 10,-17 12,-15 15,-14 8,-6 9,-4 9,-2 10,-1 39,-1 39,-2 39,-1 h 39 20 l 21,2 11,2 12,4 11,5 9,6 6,7 4,8 3,18 5,38 4,39 2,39 2,39 v 39 78 l 2,78 1,78 -2,79 -3,78 v 39 l -1,21 v 22 24 24 53 l -1,26 -1,24 v 20 l -1,18 v 15 13 l -1,12 v 10 l -1,6 v 6 l 1,10 -1,10 -3,4 -3,2 h -5 l -5,-1 -6,-8 -8,-6 -34,-20 -17,-9 -18,-8 -36,-14 -36,-17 -35,-18 -16,-9 -16,-12 -30,-25 -29,-26 -30,-26 -15,-12 -17,-10 -19,-7 -10,-3 -8,-4 -6,-8 -4,-9 -2,-9 v -10"
        />
        <path
          class="body-part"
          id="shoulder-blade-left"
          style="
            fill: #aaaaaa;
            stroke: #ff0000;
            stroke-width: 6;
            stroke-linecap: round;
            stroke-linejoin: round;
            stroke-miterlimit: 10;
            stroke-dasharray: none;
            stroke-opacity: 1;
          "
          d="m 1906,4837 9,-1 8,-3 15,-6 15,-7 14,-9 13,-10 11,-12 10,-14 8,-14 7,-15 7,-15 9,-32 18,-63 11,-31 12,-30 15,-29 13,-24 39,-54 18,-27 17,-29 18,-28 19,-28 37,-51 12,-14 3,-3 3,-1 4,1 3,3 2,4 1,4 -1,9 -1,16 -3,65 -8,132 -2,65 -1,66 -3,67 -4,68 -2,34 v 8 7 13 l 1,28 v 31 l 2,62 1,33 -1,36 -2,17 -4,17 -7,15 -9,14 -20,27 -9,14 -6,17 -3,3 -3,2 h -4 l -4,-1 -1,-4 v -5 l 1,-9 1,-32 -1,-17 -2,-16 -3,-16 -5,-16 -8,-14 -10,-13 -26,-20 -53,-40 -27,-18 -28,-18 -58,-30 -15,-8 -15,-6 -8,-3 -10,-5 -9,-6 -8,-5 -12,-10 -5,-3 -3,-2 -1,-2 v -4 l 3,-3 4,-1 h 4 l 17,-1"
        />
        <path
          class="body-part"
          id="neck-left-back"
          style="
            fill: #aaaaaa;
            stroke: #ff0000;
            stroke-width: 6;
            stroke-linecap: round;
            stroke-linejoin: round;
            stroke-miterlimit: 10;
            stroke-dasharray: none;
            stroke-opacity: 1;
          "
          d="m 2347,4935 -1,-28 -1,-28 v -31 l -1,-7 -4,-5 -5,-3 -8,-1 -28,1 h -15 l -7,2 -5,4 -3,6 -1,7 1,14 -1,28 v 113 28 l -1,14 -3,14 -5,13 -6,12 -6,11 -8,12 -8,13 -9,14 -1,7 v 6 l 5,4 6,4 14,6 12,8 22,16 12,7 13,6 14,7 7,3 h 6 l 5,-1 3,-4 3,-6 2,-7 2,-17 v -17 l 1,-16 1,-13 v -14 l -1,-14 -1,-28 -1,-28 1,-112"
        />
        <path
          class="body-part"
          id="upper-spine-left"
          style="
            fill: #aaaaaa;
            stroke: #ff0000;
            stroke-width: 6;
            stroke-linecap: round;
            stroke-linejoin: round;
            stroke-miterlimit: 10;
            stroke-dasharray: none;
            stroke-opacity: 1;
          "
          d="m 2307,4823 23,-2 h 13 l 2,-1 1,-2 v -7 l -1,-14 v -13 -24 l 1,-22 v -24 l 1,-49 v -98 l 1,-97 v -194 l 1,-98 v -48 l 1,-13 v -3 l -2,-2 -5,-4 -6,-1 h -6 l -12,1 -12,-1 h -7 l -3,1 -2,2 -1,12 -1,12 -2,48 -2,97 -4,97 -6,97 -2,49 -1,49 v 97 l -1,49 -1,24 -1,8 v 10 l -1,22 -1,9 -1,8 v 6 l -1,5 v 7 l 1,4 4,2 7,1 h 5 6 7 8"
        />
        <path
          class="body-part"
          id="lower-spine-left"
          style="
            fill: #aaaaaa;
            stroke: #ff0000;
            stroke-width: 6;
            stroke-linecap: round;
            stroke-linejoin: round;
            stroke-miterlimit: 10;
            stroke-dasharray: none;
            stroke-opacity: 1;
          "
          d="m 2295,4074 v 2 4 9 l 1,5 4,4 5,1 h 5 21 11 l 5,-2 3,-3 1,-5 v -6 -11 -20 -42 l -1,-42 v -42 l 1,-84 -2,-84 1,-83 -2,-84 1,-42 v -21 l -1,-20 v -10 l 1,-11 3,-11 2,-6 v -2 l -2,-2 -5,2 -4,2 -9,6 -7,7 -7,8 -12,18 -9,18 -7,20 -4,20 -3,21 -1,22 v 43 l 7,86 5,84 2,83 -1,84 -2,84"
        />
      </g>
    </g>
  </g>
</svg>
