<?xml version="1.0" encoding="UTF-8" standalone="no"?>
<svg
  xmlns:dc="http://purl.org/dc/elements/1.1/"
  xmlns:cc="http://creativecommons.org/ns#"
  xmlns:rdf="http://www.w3.org/1999/02/22-rdf-syntax-ns#"
  xmlns:svg="http://www.w3.org/2000/svg"
  xmlns="http://www.w3.org/2000/svg"
  viewBox="0 0 793.33331 1122.6667"
  height="1122.6667"
  width="793.33331"
  xml:space="preserve"
  id="svg2"
  version="1.1"
>
  <metadata id="metadata8">
    <rdf:RDF
      ><cc:Work rdf:about=""
        ><dc:format>image/svg+xml</dc:format><dc:type rdf:resource="http://purl.org/dc/dcmitype/StillImage" /></cc:Work
    ></rdf:RDF>
  </metadata>
  <defs id="defs6">
    <clipPath id="clipPath18" clipPathUnits="userSpaceOnUse">
      <path id="path16" d="M 733,0 H 3990 V 6212 H 733 V 0" />
    </clipPath>
  </defs>
  <g transform="matrix(0.16,0,0,-0.16,18.666666,1058.6667)" id="g10">
    <g id="g12">
      <g clip-path="url(#clipPath18)" id="g14">
        <path
          class="body-part"
          id="head-front"
          style="
            fill: #aaaaaa;
            stroke: #ff0000;
            stroke-width: 6;
            stroke-linecap: round;
            stroke-linejoin: round;
            stroke-miterlimit: 10;
            stroke-dasharray: none;
            stroke-opacity: 1;
          "
          d="m 2361,5082 h -16 l -16,3 -15,3 -15,5 -15,5 -14,8 -25,19 -12,11 -11,11 -22,23 -10,12 -3,7 -2,8 -3,15 -2,17 -1,32 1,15 v 8 4 l -2,4 -3,3 -3,1 -7,-5 -3,-2 -4,-1 -9,2 -7,2 -7,4 -6,5 -5,6 -9,14 -7,14 -11,30 -9,30 -4,15 -1,16 v 9 l 2,8 3,8 4,6 7,3 8,2 17,-2 4,1 3,2 4,7 2,8 v 8 l -3,31 1,32 4,31 7,31 5,16 6,14 7,14 9,13 10,13 11,11 25,20 26,18 26,18 14,8 14,8 15,5 15,3 32,1 32,-1 15,-3 15,-5 14,-8 14,-8 26,-18 26,-18 25,-20 11,-11 10,-13 9,-13 7,-14 6,-14 5,-16 7,-31 4,-31 1,-32 -3,-31 v -8 l 2,-8 4,-7 3,-2 4,-1 17,2 8,-2 7,-3 4,-6 3,-8 2,-8 v -9 l -1,-16 -4,-15 -9,-30 -11,-30 -7,-14 -9,-14 -5,-6 -6,-5 -7,-4 -7,-2 -9,-2 -4,1 -3,2 -7,5 -3,-1 -3,-3 -2,-4 v -4 -8 l 1,-15 -1,-32 -2,-17 -3,-15 -2,-8 -3,-7 -10,-12 -22,-23 -11,-11 -12,-11 -25,-19 -14,-8 -15,-5 -15,-5 -15,-3 -16,-3 h -16"
        />
        <path
          class="body-part"
          id="neck-left-front"
          style="
            fill: #aaaaaa;
            stroke: #ff0000;
            stroke-width: 6;
            stroke-linecap: round;
            stroke-linejoin: round;
            stroke-miterlimit: 10;
            stroke-dasharray: none;
            stroke-opacity: 1;
          "
          d="m 2650,4959 33,-23 17,-10 18,-10 36,-18 18,-9 18,-8 9,-5 4,-4 v -2 -2 l -2,-2 -2,-1 h -5 l -11,1 -40,-2 -19,-4 -20,-5 -39,-10 -19,-4 -20,-3 -40,-4 -20,1 -20,5 -20,4 -20,1 -40,-2 -39,-4 -20,-5 -10,-2 -10,1 -5,2 -4,3 -3,4 -1,5 v 20 20 l -2,20 -2,40 v 40 l 3,40 1,10 3,10 4,9 7,7 8,6 10,3 19,5 19,7 18,10 16,11 16,13 14,13 7,8 5,9 4,11 3,4 4,2 h 5 l 2,-1 1,-2 v -6 l -1,-5 -1,-20 v -20 l 1,-20 3,-20 6,-19 4,-10 5,-8 6,-8 8,-7 16,-12 32,-25 32,-23"
        />
        <path
          class="body-part"
          id="neck-right-front"
          style="
            fill: #aaaaaa;
            stroke: #ff0000;
            stroke-width: 6;
            stroke-linecap: round;
            stroke-linejoin: round;
            stroke-miterlimit: 10;
            stroke-dasharray: none;
            stroke-opacity: 1;
          "
          d="m 2072,4959 -33,-23 -17,-10 -18,-10 -36,-18 -18,-9 -18,-8 -9,-5 -4,-4 v -2 -2 l 2,-2 2,-1 h 5 l 11,1 40,-2 19,-4 20,-5 39,-10 19,-4 20,-3 40,-4 20,1 20,5 20,4 20,1 40,-2 39,-4 20,-5 10,-2 10,1 5,2 4,3 3,4 1,5 v 20 20 l 2,20 2,40 v 40 l -3,40 -1,10 -3,10 -4,9 -7,7 -8,6 -10,3 -19,5 -19,7 -18,10 -16,11 -16,13 -14,13 -7,8 -5,9 -4,11 -3,4 -4,2 h -5 l -2,-1 -1,-2 v -6 l 1,-5 1,-20 v -20 l -1,-20 -3,-20 -6,-19 -4,-10 -5,-8 -6,-8 -8,-7 -16,-12 -32,-25 -32,-23"
        />
        <path
          class="body-part"
          id="shoulder-left-front"
          style="
            fill: #ff0000;
            stroke: #ff0000;
            stroke-width: 6;
            stroke-linecap: round;
            stroke-linejoin: round;
            stroke-miterlimit: 10;
            stroke-dasharray: none;
            stroke-opacity: 1;
          "
          d="m 2757,4850 39,3 h 20 19 l 20,-3 19,-5 18,-7 17,-10 16,-10 16,-12 15,-12 14,-14 13,-15 12,-15 11,-16 9,-17 9,-18 7,-18 12,-37 10,-38 7,-38 5,-39 2,-20 v -9 l -3,-10 -3,-4 -4,-2 -9,-3 -11,-1 -10,1 -38,6 -19,4 -18,8 -17,10 -16,11 -15,12 -14,14 -12,16 -9,17 -3,9 -3,9 -3,20 -5,19 -6,18 -9,17 -11,16 -24,32 -12,15 -14,13 -32,24 -15,11 -17,10 -18,8 -19,6 -18,4 -10,3 -4,3 v 5 l 2,5 4,3 10,3 19,5 38,8 38,5"
        />
        <path
          class="body-part"
          id="shoulder-right-front"
          style="
            fill: #aaaaaa;
            stroke: #ff0000;
            stroke-width: 6;
            stroke-linecap: round;
            stroke-linejoin: round;
            stroke-miterlimit: 10;
            stroke-dasharray: none;
            stroke-opacity: 1;
          "
          d="m 1965,4850 -39,3 h -20 -19 l -20,-3 -19,-5 -18,-7 -17,-10 -16,-10 -16,-12 -15,-12 -14,-14 -13,-15 -12,-15 -11,-16 -9,-17 -9,-18 -7,-18 -12,-37 -10,-38 -7,-38 -5,-39 -2,-20 v -9 l 3,-10 3,-4 4,-2 9,-3 11,-1 10,1 38,6 19,4 18,8 17,10 16,11 15,12 14,14 12,16 9,17 3,9 3,9 3,20 5,19 6,18 9,17 11,16 24,32 12,15 14,13 32,24 15,11 17,10 18,8 19,6 18,4 10,3 4,3 v 5 l -2,5 -4,3 -10,3 -19,5 -38,8 -38,5"
        />
        <path
          class="body-part"
          id="upper-arm-left-front"
          style="
            fill: #aaaaaa;
            stroke: #ff0000;
            stroke-width: 6;
            stroke-linecap: round;
            stroke-linejoin: round;
            stroke-miterlimit: 10;
            stroke-dasharray: none;
            stroke-opacity: 1;
          "
          d="m 2863,4393 v 94 l -1,23 v 12 l 2,12 2,5 4,4 3,1 h 3 l 5,-3 14,-19 9,-8 10,-6 18,-14 21,-11 22,-9 11,-3 12,-3 23,-4 h 12 l 11,3 10,5 5,4 6,1 3,-1 2,-1 2,-5 -1,-14 -1,-12 -1,-11 -1,-23 1,-24 10,-93 4,-47 4,-23 7,-22 8,-22 4,-11 2,-12 2,-23 1,-23 1,-12 2,-11 3,-12 1,-6 v -6 l -2,-2 -2,-1 -6,-1 -7,-2 -5,-2 -9,-7 -9,-8 -18,-15 -19,-14 -20,-13 -20,-11 -11,-4 -12,-3 -23,-3 -11,-3 -11,-4 -22,-9 -10,-5 -6,-2 h -6 l -3,1 -1,2 -3,5 -2,13 -5,45 -8,46 -9,47 -7,47 -1,23 -1,23 v 24 l 3,23 7,47 1,23 1,23 2,47"
        />
        <path
          class="body-part"
          id="upper-arm-right-front"
          style="
            fill: #aaaaaa;
            stroke: #ff0000;
            stroke-width: 6;
            stroke-linecap: round;
            stroke-linejoin: round;
            stroke-miterlimit: 10;
            stroke-dasharray: none;
            stroke-opacity: 1;
          "
          d="m 1859,4393 v 94 l 1,23 v 12 l -2,12 -2,5 -4,4 -3,1 h -3 l -5,-3 -14,-19 -9,-8 -10,-6 -18,-14 -21,-11 -22,-9 -11,-3 -12,-3 -23,-4 h -12 l -11,3 -10,5 -5,4 -6,1 -3,-1 -2,-1 -2,-5 1,-14 1,-12 1,-11 1,-23 -1,-24 -10,-93 -4,-47 -4,-23 -7,-22 -8,-22 -4,-11 -2,-12 -2,-23 -1,-23 -1,-12 -2,-11 -3,-12 -1,-6 v -6 l 2,-2 2,-1 6,-1 7,-2 5,-2 9,-7 9,-8 18,-15 19,-14 20,-13 20,-11 11,-4 12,-3 23,-3 11,-3 11,-4 22,-9 10,-5 6,-2 h 6 l 3,1 1,2 3,5 2,13 5,45 8,46 9,47 7,47 1,23 1,23 v 24 l -3,23 -7,47 -1,23 -1,23 -2,47"
        />
        <path
          class="body-part"
          id="elbow-left-front"
          style="
            fill: #aaaaaa;
            stroke: #ff0000;
            stroke-width: 6;
            stroke-linecap: round;
            stroke-linejoin: round;
            stroke-miterlimit: 10;
            stroke-dasharray: none;
            stroke-opacity: 1;
          "
          d="m 3026,3984 19,13 18,14 16,17 8,8 9,7 10,5 6,3 5,1 6,-1 5,-3 3,-5 2,-5 2,-23 -1,-12 -1,-11 -2,-12 -3,-11 -9,-21 -5,-10 -7,-10 -7,-8 -9,-8 -9,-7 -10,-6 -20,-11 -20,-12 -20,-12 -41,-20 -21,-9 -22,-6 -12,-1 -6,1 -5,2 -4,4 -2,6 -2,11 -8,46 -1,11 v 12 l 3,11 2,5 3,5 4,4 5,3 12,3 11,4 11,2 23,2 22,5 11,3 11,5 20,11"
        />
        <path
          class="body-part"
          id="elbow-right-front"
          style="
            fill: #aaaaaa;
            stroke: #ff0000;
            stroke-width: 6;
            stroke-linecap: round;
            stroke-linejoin: round;
            stroke-miterlimit: 10;
            stroke-dasharray: none;
            stroke-opacity: 1;
          "
          d="m 1696,3984 -19,13 -18,14 -16,17 -8,8 -9,7 -10,5 -6,3 -5,1 -6,-1 -5,-3 -3,-5 -2,-5 -2,-23 1,-12 1,-11 2,-12 3,-11 9,-21 5,-10 7,-10 7,-8 9,-8 9,-7 10,-6 20,-11 20,-12 20,-12 41,-20 21,-9 22,-6 12,-1 6,1 5,2 4,4 2,6 2,11 8,46 1,11 v 12 l -3,11 -2,5 -3,5 -4,4 -5,3 -12,3 -11,4 -11,2 -23,2 -22,5 -11,3 -11,5 -20,11"
        />
        <path
          class="body-part"
          id="forearm-left-front"
          style="
            fill: #aaaaaa;
            stroke: #ff0000;
            stroke-width: 6;
            stroke-linecap: round;
            stroke-linejoin: round;
            stroke-miterlimit: 10;
            stroke-dasharray: none;
            stroke-opacity: 1;
          "
          d="m 3003,3843 22,9 22,10 20,12 21,13 9,7 9,8 7,9 6,10 9,24 2,2 2,1 h 7 l 6,-1 4,-4 5,-11 4,-11 7,-23 7,-23 6,-23 7,-47 10,-46 4,-24 3,-23 6,-48 6,-94 2,-24 3,-24 14,-45 12,-46 2,-12 2,-12 v -6 l -2,-6 -2,-5 -4,-4 -10,-8 -11,-5 -21,-12 -10,-5 -11,-4 -12,-2 h -12 l -24,1 -12,2 -11,4 -21,12 -9,6 -9,8 -8,9 -6,10 -11,22 -20,43 -19,44 -20,43 -44,84 -20,43 -8,23 -7,23 -4,23 -4,24 -2,12 v 7 5 l 3,5 4,4 11,5 24,6 22,7 44,18"
        />
        <path
          class="body-part"
          id="forearm-right-front"
          style="
            fill: #aaaaaa;
            stroke: #ff0000;
            stroke-width: 6;
            stroke-linecap: round;
            stroke-linejoin: round;
            stroke-miterlimit: 10;
            stroke-dasharray: none;
            stroke-opacity: 1;
          "
          d="m 1719,3843 -22,9 -22,10 -20,12 -21,13 -9,7 -9,8 -7,9 -6,10 -9,24 -2,2 -2,1 h -7 l -6,-1 -4,-4 -5,-11 -4,-11 -7,-23 -7,-23 -6,-23 -7,-47 -10,-46 -4,-24 -3,-23 -6,-48 -6,-94 -2,-24 -3,-24 -14,-45 -12,-46 -2,-12 -2,-12 v -6 l 2,-6 2,-5 4,-4 10,-8 11,-5 21,-12 10,-5 11,-4 12,-2 h 12 l 24,1 12,2 11,4 21,12 9,6 9,8 8,9 6,10 11,22 20,43 19,44 20,43 44,84 20,43 8,23 7,23 4,23 4,24 2,12 v 7 5 l -3,5 -4,4 -11,5 -24,6 -22,7 -44,18"
        />
        <path
          class="body-part"
          id="wrist-left-front"
          style="
            fill: #aaaaaa;
            stroke: #ff0000;
            stroke-width: 6;
            stroke-linecap: round;
            stroke-linejoin: round;
            stroke-miterlimit: 10;
            stroke-dasharray: none;
            stroke-opacity: 1;
          "
          d="m 3274,3298 2,-11 4,-10 11,-20 5,-10 8,-10 4,-4 2,-5 1,-5 v -6 -6 -3 l -2,-2 -6,-2 h -5 -12 l -11,-1 -22,-4 -23,-5 -10,-3 -11,-5 -10,-5 -11,-4 -11,-2 -11,-1 -12,2 -10,5 -8,7 -7,10 -11,20 -8,21 -4,11 -2,11 -2,23 -2,11 -3,11 -5,10 -6,10 -6,10 -4,10 v 3 l 2,2 2,2 h 3 l 6,-2 5,-2 10,-6 10,-4 11,-2 12,-1 h 23 l 22,2 11,3 11,4 10,5 9,7 9,7 10,6 5,1 h 6 l 6,-1 4,-4 1,-6 1,-6 v -11 l 4,-22 5,-23"
        />
        <path
          class="body-part"
          id="wrist-right-front"
          style="
            fill: #aaaaaa;
            stroke: #ff0000;
            stroke-width: 6;
            stroke-linecap: round;
            stroke-linejoin: round;
            stroke-miterlimit: 10;
            stroke-dasharray: none;
            stroke-opacity: 1;
          "
          d="m 1448,3298 -2,-11 -4,-10 -11,-20 -5,-10 -8,-10 -4,-4 -2,-5 -1,-5 v -6 -6 -3 l 2,-2 6,-2 h 5 12 l 11,-1 22,-4 23,-5 10,-3 11,-5 10,-5 11,-4 11,-2 11,-1 12,2 10,5 8,7 7,10 11,20 8,21 4,11 2,11 2,23 2,11 3,11 5,10 6,10 6,10 4,10 v 3 l -2,2 -2,2 h -3 l -6,-2 -5,-2 -10,-6 -10,-4 -11,-2 -12,-1 h -23 l -22,2 -11,3 -11,4 -10,5 -9,7 -9,7 -10,6 -5,1 h -6 l -6,-1 -4,-4 -1,-6 -1,-6 v -11 l -4,-22 -5,-23"
        />
        <path
          class="body-part"
          id="hand-left-front"
          style="
            fill: #aaaaaa;
            stroke: #ff0000;
            stroke-width: 6;
            stroke-linecap: round;
            stroke-linejoin: round;
            stroke-miterlimit: 10;
            stroke-dasharray: none;
            stroke-opacity: 1;
          "
          d="m 3397,3133 15,-16 16,-14 32,-26 33,-27 17,-13 10,-4 10,-2 h 10 l 11,-3 5,-2 3,-4 2,-5 1,-5 -1,-11 -2,-5 -2,-5 -4,-3 -5,-2 -11,-3 -10,-1 -11,-1 -10,1 -10,2 -10,4 -9,6 -8,7 -7,8 -15,15 -7,7 -7,9 -4,2 -6,1 -5,-1 -4,-3 -3,-5 v -5 l 1,-11 6,-20 8,-20 7,-19 6,-21 4,-10 5,-9 11,-18 12,-17 10,-19 17,-38 4,-10 3,-11 v -5 l -1,-5 -3,-5 -3,-4 -5,-3 -5,-2 h -5 -6 l -9,4 -8,7 -7,8 -4,10 -9,19 -19,38 -18,38 -9,19 -10,19 -4,4 -4,3 -4,3 h -6 l -5,-1 -3,-4 -1,-5 2,-6 5,-10 5,-9 9,-19 17,-38 18,-38 16,-39 8,-20 4,-10 3,-10 1,-5 -2,-5 -2,-5 -4,-4 -5,-2 -5,-1 h -11 l -6,1 -4,1 -8,7 -7,9 -5,9 -15,39 -31,79 -8,19 -5,21 -3,10 -2,5 -4,4 -4,2 -5,2 -6,-1 -4,-3 -2,-5 -1,-5 2,-11 6,-20 8,-41 13,-84 1,-10 -2,-11 -4,-9 -3,-4 -5,-4 -4,-2 -6,-1 -10,1 -10,4 -4,4 -3,4 -2,10 v 11 l -1,21 -4,42 -4,42 -3,21 -6,20 -6,21 -2,4 -4,4 -5,3 h -5 l -5,-2 -3,-4 -1,-5 1,-6 2,-21 7,-84 -2,-5 -2,-5 -4,-4 -4,-3 -10,-3 -11,-1 -5,1 -4,3 -3,5 -1,5 -2,11 v 10 l 3,42 v 43 l -3,42 -5,42 -10,83 -5,21 -7,20 -3,10 v 10 l 1,6 3,4 4,4 4,2 21,6 20,9 19,8 20,4 21,4 21,2 21,2 11,-1 10,-2 10,-4 9,-6 16,-14 30,-28"
        />
        <path
          class="body-part"
          id="hand-right-front"
          style="
            fill: #aaaaaa;
            stroke: #ff0000;
            stroke-width: 6;
            stroke-linecap: round;
            stroke-linejoin: round;
            stroke-miterlimit: 10;
            stroke-dasharray: none;
            stroke-opacity: 1;
          "
          d="m 1325,3133 -15,-16 -16,-14 -32,-26 -33,-27 -17,-13 -10,-4 -10,-2 h -10 l -11,-3 -5,-2 -3,-4 -2,-5 -1,-5 1,-11 2,-5 2,-5 4,-3 5,-2 11,-3 10,-1 11,-1 10,1 10,2 10,4 9,6 8,7 7,8 15,15 7,7 7,9 4,2 6,1 5,-1 4,-3 3,-5 v -5 l -1,-11 -6,-20 -8,-20 -7,-19 -6,-21 -4,-10 -5,-9 -11,-18 -12,-17 -10,-19 -17,-38 -4,-10 -3,-11 v -5 l 1,-5 3,-5 3,-4 5,-3 5,-2 h 5 6 l 9,4 8,7 7,8 4,10 9,19 19,38 18,38 9,19 10,19 4,4 4,3 4,3 h 6 l 5,-1 3,-4 1,-5 -2,-6 -5,-10 -5,-9 -9,-19 -17,-38 -18,-38 -16,-39 -8,-20 -4,-10 -3,-10 -1,-5 2,-5 2,-5 4,-4 5,-2 5,-1 h 11 l 6,1 4,1 8,7 7,9 5,9 15,39 31,79 8,19 5,21 3,10 2,5 4,4 4,2 5,2 6,-1 4,-3 2,-5 1,-5 -2,-11 -6,-20 -8,-41 -13,-84 -1,-10 2,-11 4,-9 3,-4 5,-4 4,-2 6,-1 10,1 10,4 4,4 3,4 2,10 v 11 l 1,21 4,42 4,42 3,21 6,20 6,21 2,4 4,4 5,3 h 5 l 5,-2 3,-4 1,-5 -1,-6 -2,-21 -7,-84 2,-5 2,-5 4,-4 4,-3 10,-3 11,-1 5,1 4,3 3,5 1,5 2,11 v 10 l -3,42 v 43 l 3,42 5,42 10,83 5,21 7,20 3,10 v 10 l -1,6 -3,4 -4,4 -4,2 -21,6 -20,9 -19,8 -20,4 -21,4 -21,2 -21,2 -11,-1 -10,-2 -10,-4 -9,-6 -16,-14 -30,-28"
        />
        <path
          class="body-part"
          id="chest-left"
          style="
            fill: #aaaaaa;
            stroke: #ff0000;
            stroke-width: 6;
            stroke-linecap: round;
            stroke-linejoin: round;
            stroke-miterlimit: 10;
            stroke-dasharray: none;
            stroke-opacity: 1;
          "
          d="m 2393,4665 v 26 l 2,25 3,13 3,12 5,12 7,12 7,10 9,10 9,9 10,8 12,6 12,5 12,3 13,2 26,1 25,-1 51,-8 26,-4 25,-7 24,-8 24,-9 24,-10 11,-7 10,-7 40,-33 18,-19 15,-21 14,-22 11,-23 8,-24 3,-13 2,-13 1,-25 -1,-26 -2,-26 -2,-13 -4,-12 -4,-12 -5,-12 -13,-22 -29,-44 -15,-20 -17,-19 -20,-17 -20,-15 -22,-14 -23,-13 -11,-5 -13,-4 -25,-6 -25,-3 -26,-1 -26,1 -25,3 -25,7 -25,8 -23,13 -10,7 -10,8 -18,19 -16,20 -7,11 -6,11 -10,24 -7,25 -2,13 -1,13 2,12 3,13 11,23 5,12 4,12 3,13 1,13 v 26 l -2,25 -1,52"
        />
        <path
          class="body-part"
          id="chest-right"
          style="
            fill: #aaaaaa;
            stroke: #ff0000;
            stroke-width: 6;
            stroke-linecap: round;
            stroke-linejoin: round;
            stroke-miterlimit: 10;
            stroke-dasharray: none;
            stroke-opacity: 1;
          "
          d="m 2329,4665 v 26 l -2,25 -3,13 -3,12 -5,12 -7,12 -7,10 -9,10 -9,9 -10,8 -12,6 -12,5 -12,3 -13,2 -26,1 -25,-1 -51,-8 -26,-4 -25,-7 -24,-8 -24,-9 -24,-10 -11,-7 -10,-7 -40,-33 -18,-19 -15,-21 -14,-22 -11,-23 -8,-24 -3,-13 -2,-13 -1,-25 1,-26 2,-26 2,-13 4,-12 4,-12 5,-12 13,-22 29,-44 15,-20 17,-19 20,-17 20,-15 22,-14 23,-13 11,-5 13,-4 25,-6 25,-3 26,-1 26,1 25,3 25,7 25,8 23,13 10,7 10,8 18,19 16,20 7,11 6,11 10,24 7,25 2,13 1,13 -2,12 -3,13 -11,23 -5,12 -4,12 -3,13 -1,13 v 26 l 2,25 1,52"
        />
        <path
          class="body-part"
          id="upper-abdomen-left"
          style="
            fill: #aaaaaa;
            stroke: #ff0000;
            stroke-width: 6;
            stroke-linecap: round;
            stroke-linejoin: round;
            stroke-miterlimit: 10;
            stroke-dasharray: none;
            stroke-opacity: 1;
          "
          d="m 2369,4178 2,54 2,26 4,27 2,15 2,6 2,2 2,2 7,1 h 7 l 13,-2 12,-6 11,-8 11,-7 12,-7 25,-11 12,-6 12,-4 14,-3 13,-2 27,-1 27,1 27,3 26,7 25,9 25,11 24,12 23,14 21,16 19,19 9,10 8,11 7,12 4,5 3,1 4,1 3,-1 2,-2 3,-7 1,-7 v -7 l -2,-54 -3,-26 -4,-27 -10,-53 -6,-26 -7,-26 -27,-104 -7,-26 -5,-26 -5,-27 -8,-26 -4,-12 -6,-12 -4,-6 -6,-4 -6,-3 -6,-2 -13,-2 h -14 -27 l -53,-1 h -54 l -53,11 -27,2 -27,1 h -27 -13 l -13,4 -6,3 -6,5 -3,5 -3,6 v 14 14 l 2,26 v 27 l -1,54 1,54 v 53"
        />
        <path
          class="body-part"
          id="upper-abdomen-right"
          style="
            fill: #aaaaaa;
            stroke: #ff0000;
            stroke-width: 6;
            stroke-linecap: round;
            stroke-linejoin: round;
            stroke-miterlimit: 10;
            stroke-dasharray: none;
            stroke-opacity: 1;
          "
          d="m 2353,4178 -2,54 -2,26 -4,27 -2,15 -2,6 -2,2 -2,2 -7,1 h -7 l -13,-2 -12,-6 -11,-8 -11,-7 -12,-7 -25,-11 -12,-6 -12,-4 -14,-3 -13,-2 -27,-1 -27,1 -27,3 -26,7 -25,9 -25,11 -24,12 -23,14 -21,16 -19,19 -9,10 -8,11 -7,12 -4,5 -3,1 -4,1 -3,-1 -2,-2 -3,-7 -1,-7 v -7 l 2,-54 3,-26 4,-27 10,-53 6,-26 7,-26 27,-104 7,-26 5,-26 5,-27 8,-26 4,-12 6,-12 4,-6 6,-4 6,-3 6,-2 13,-2 h 14 27 l 53,-1 h 54 l 53,11 27,2 27,1 h 27 13 l 13,4 6,3 6,5 3,5 3,6 v 14 14 l -2,26 v 27 l 1,54 -1,54 v 53"
        />
        <path
          class="body-part"
          id="lower-abdomen-left"
          style="
            fill: #aaaaaa;
            stroke: #ff0000;
            stroke-width: 6;
            stroke-linecap: round;
            stroke-linejoin: round;
            stroke-miterlimit: 10;
            stroke-dasharray: none;
            stroke-opacity: 1;
          "
          d="m 2464,3881 31,-3 31,-1 h 31 l 31,2 31,5 31,2 31,2 h 17 l 8,-2 6,-4 4,-6 3,-8 3,-16 1,-15 v -16 l -1,-31 2,-31 7,-62 8,-62 2,-31 v -16 l -2,-15 -6,-14 -8,-14 -16,-27 -32,-54 -16,-26 -17,-26 -19,-25 -20,-25 -41,-46 -40,-47 -20,-24 -20,-26 -21,-25 -11,-12 -11,-10 -13,-8 -13,-6 -15,-3 -17,-5 -9,-1 -4,1 -3,1 -1,2 -1,4 -1,8 1,17 -1,15 1,30 1,32 2,63 4,62 5,62 2,31 -1,31 -5,63 -3,62 -2,125 -1,62 -1,62 -1,17 1,3 1,4 4,2 3,1 8,-2 7,-3 15,-6 29,-11 15,-4 16,-2"
        />
        <path
          class="body-part"
          id="lower-abdomen-right"
          style="
            fill: #aaaaaa;
            stroke: #ff0000;
            stroke-width: 6;
            stroke-linecap: round;
            stroke-linejoin: round;
            stroke-miterlimit: 10;
            stroke-dasharray: none;
            stroke-opacity: 1;
          "
          d="m 2258,3881 -31,-3 -31,-1 h -31 l -31,2 -31,5 -31,2 -31,2 h -17 l -8,-2 -6,-4 -4,-6 -3,-8 -3,-16 -1,-15 v -16 l 1,-31 -2,-31 -7,-62 -8,-62 -2,-31 v -16 l 2,-15 6,-14 8,-14 16,-27 32,-54 16,-26 17,-26 19,-25 20,-25 41,-46 40,-47 20,-24 20,-26 21,-25 11,-12 11,-10 13,-8 13,-6 15,-3 17,-5 9,-1 4,1 3,1 1,2 1,4 1,8 -1,17 1,15 -1,30 -1,32 -2,63 -4,62 -5,62 -2,31 1,31 5,63 3,62 2,125 1,62 1,62 1,17 -1,3 -1,4 -4,2 -3,1 -8,-2 -7,-3 -15,-6 -29,-11 -15,-4 -16,-2"
        />
        <path
          class="body-part"
          id="hip-left"
          style="
            fill: #aaaaaa;
            stroke: #ff0000;
            stroke-width: 6;
            stroke-linecap: round;
            stroke-linejoin: round;
            stroke-miterlimit: 10;
            stroke-dasharray: none;
            stroke-opacity: 1;
          "
          d="m 2634,3351 28,41 13,22 13,22 12,21 13,21 7,11 4,13 3,6 3,5 5,3 h 4 l 2,-1 5,-4 4,-6 5,-12 3,-13 2,-12 7,-49 5,-50 7,-50 6,-49 5,-50 3,-25 1,-13 v -12 l -5,-25 -6,-25 -4,-11 -5,-12 -13,-21 -6,-11 -8,-10 -8,-9 -10,-8 -21,-14 -21,-13 -44,-25 -44,-23 -23,-10 -24,-9 -48,-15 -24,-7 -11,-4 -12,-6 -21,-13 -10,-6 -7,-3 -7,-2 h -7 l -3,1 -2,2 -1,2 v 3 7 l -1,13 -1,12 -1,24 2,25 8,51 5,24 7,24 9,24 11,22 14,21 16,20 35,36 33,38 32,39 66,75"
        />
        <path
          class="body-part"
          id="hip-right"
          style="
            fill: #aaaaaa;
            stroke: #ff0000;
            stroke-width: 6;
            stroke-linecap: round;
            stroke-linejoin: round;
            stroke-miterlimit: 10;
            stroke-dasharray: none;
            stroke-opacity: 1;
          "
          d="m 2088,3351 -28,41 -13,22 -13,22 -12,21 -13,21 -7,11 -4,13 -3,6 -3,5 -5,3 h -4 l -2,-1 -5,-4 -4,-6 -5,-12 -3,-13 -2,-12 -7,-49 -5,-50 -7,-50 -6,-49 -5,-50 -3,-25 -1,-13 v -12 l 5,-25 6,-25 4,-11 5,-12 13,-21 6,-11 8,-10 8,-9 10,-8 21,-14 21,-13 44,-25 44,-23 23,-10 24,-9 48,-15 24,-7 11,-4 12,-6 21,-13 10,-6 7,-3 7,-2 h 7 l 3,1 2,2 1,2 v 3 7 l 1,13 1,12 1,24 -2,25 -8,51 -5,24 -7,24 -9,24 -11,22 -14,21 -16,20 -35,36 -33,38 -32,39 -66,75"
        />
        <path
          class="body-part"
          id="thigh-left-front"
          style="
            fill: #aaaaaa;
            stroke: #ff0000;
            stroke-width: 6;
            stroke-linecap: round;
            stroke-linejoin: round;
            stroke-miterlimit: 10;
            stroke-dasharray: none;
            stroke-opacity: 1;
          "
          d="m 2484,2908 39,14 39,13 39,13 19,8 18,9 35,20 34,23 34,24 15,13 14,16 11,17 4,10 2,10 v 5 l 2,5 3,4 2,2 2,-1 1,-1 1,-3 v -7 -11 l 1,-18 1,-20 1,-43 1,-82 2,-82 2,-82 v -81 l -1,-82 -1,-41 -3,-41 -17,-163 -6,-41 -8,-40 -17,-80 -10,-40 -6,-20 -8,-18 -11,-18 -13,-16 -15,-14 -9,-5 -9,-4 -10,-2 h -11 -21 l -41,-2 -40,-2 h -41 -21 l -20,1 -11,1 -10,3 -9,3 -9,6 -8,7 -5,8 -4,10 -3,10 -2,21 v 20 l 2,41 v 41 l -3,41 -4,41 -8,81 -3,41 -2,41 -1,41 1,41 2,82 2,82 2,41 4,41 2,20 1,21 -1,20 2,10 3,5 4,2 10,1 10,3 19,9 18,9 18,9"
        />
        <path
          class="body-part"
          id="thigh-right-front"
          style="
            fill: #aaaaaa;
            stroke: #ff0000;
            stroke-width: 6;
            stroke-linecap: round;
            stroke-linejoin: round;
            stroke-miterlimit: 10;
            stroke-dasharray: none;
            stroke-opacity: 1;
          "
          d="m 2238,2908 -39,14 -39,13 -39,13 -19,8 -18,9 -35,20 -34,23 -34,24 -15,13 -14,16 -11,17 -4,10 -2,10 v 5 l -2,5 -3,4 -2,2 -2,-1 -1,-1 -1,-3 v -7 -11 l -1,-18 -1,-20 -1,-43 -1,-82 -2,-82 -2,-82 v -81 l 1,-82 1,-41 3,-41 17,-163 6,-41 8,-40 17,-80 10,-40 6,-20 8,-18 11,-18 13,-16 15,-14 9,-5 9,-4 10,-2 h 11 21 l 41,-2 40,-2 h 41 21 l 20,1 11,1 10,3 9,3 9,6 8,7 5,8 4,10 3,10 2,21 v 20 l -2,41 v 41 l 3,41 4,41 8,81 3,41 2,41 1,41 -1,41 -2,82 -2,82 -2,41 -4,41 -2,20 -1,21 1,20 -2,10 -3,5 -4,2 -10,1 -10,3 -19,9 -18,9 -18,9"
        />
        <path
          class="body-part"
          id="knee-left-front"
          style="
            fill: #aaaaaa;
            stroke: #ff0000;
            stroke-width: 6;
            stroke-linecap: round;
            stroke-linejoin: round;
            stroke-miterlimit: 10;
            stroke-dasharray: none;
            stroke-opacity: 1;
          "
          d="m 2558,2038 h 80 l 20,2 19,6 18,8 18,10 15,13 5,1 h 2 l 2,-1 3,-4 1,-5 -4,-20 -3,-19 -10,-39 -8,-39 -11,-79 -6,-40 -1,-19 1,-20 -1,-20 -3,-10 -6,-8 -7,-7 -9,-6 -18,-8 -10,-2 -9,-2 h -10 l -10,2 -40,3 -20,1 -20,-2 -39,-10 -19,-3 -10,1 -10,2 -10,3 -9,4 -7,7 -3,4 -1,5 v 10 l 2,10 -1,10 -2,10 -12,38 -11,39 -6,39 -5,40 -1,20 v 20 20 l -1,9 -2,10 -2,10 -2,10 1,5 3,4 5,1 5,-1 39,-8 40,-4 40,-1 h 40"
        />
        <path
          class="body-part"
          id="knee-right-front"
          style="
            fill: #aaaaaa;
            stroke: #ff0000;
            stroke-width: 6;
            stroke-linecap: round;
            stroke-linejoin: round;
            stroke-miterlimit: 10;
            stroke-dasharray: none;
            stroke-opacity: 1;
          "
          d="m 2164,2038 h -80 l -20,2 -19,6 -18,8 -18,10 -15,13 -5,1 h -2 l -2,-1 -3,-4 -1,-5 4,-20 3,-19 10,-39 8,-39 11,-79 6,-40 1,-19 -1,-20 1,-20 3,-10 6,-8 7,-7 9,-6 18,-8 10,-2 9,-2 h 10 l 10,2 40,3 20,1 20,-2 39,-10 19,-3 10,1 10,2 10,3 9,4 7,7 3,4 1,5 v 10 l -2,10 1,10 2,10 12,38 11,39 6,39 5,40 1,20 v 20 20 l 1,9 2,10 2,10 2,10 -1,5 -3,4 -5,1 -5,-1 -39,-8 -40,-4 -40,-1 h -40"
        />
        <path
          class="body-part"
          id="lower-leg-left-front"
          style="
            fill: #aaaaaa;
            stroke: #ff0000;
            stroke-width: 6;
            stroke-linecap: round;
            stroke-linejoin: round;
            stroke-miterlimit: 10;
            stroke-dasharray: none;
            stroke-opacity: 1;
          "
          d="m 2707,1622 3,-63 v -63 l -1,-64 -4,-31 -8,-31 -17,-61 -6,-31 -4,-31 -9,-63 -4,-31 -4,-32 -4,-31 -7,-31 -8,-31 -6,-31 -6,-30 -1,-17 v -9 l -2,-3 -2,-3 -3,-2 -4,-1 -8,-1 h -16 l -31,5 -62,13 -15,2 h -8 -9 l -1,1 -1,2 1,4 1,8 1,15 -4,127 -2,32 -3,31 -10,63 -4,31 -4,32 -5,63 -5,63 -3,63 v 32 l 2,32 4,31 1,16 1,16 -2,31 -3,32 -1,15 v 16 5 l 1,4 2,2 4,1 4,-1 3,-2 7,-4 16,-4 15,-2 16,-1 16,1 31,4 16,3 16,1 h 16 l 15,-2 16,-1 h 16 l 16,3 7,2 7,5 12,10 6,5 7,3 5,2 3,-1 3,-3 1,-4 1,-16 2,-31 2,-32 1,-32"
        />
        <path
          class="body-part"
          id="lower-leg-left-front"
          style="
            fill: #aaaaaa;
            stroke: #ff0000;
            stroke-width: 6;
            stroke-linecap: round;
            stroke-linejoin: round;
            stroke-miterlimit: 10;
            stroke-dasharray: none;
            stroke-opacity: 1;
          "
          d="m 2015,1622 -3,-63 v -63 l 1,-64 4,-31 8,-31 17,-61 6,-31 4,-31 9,-63 4,-31 4,-32 4,-31 7,-31 8,-31 6,-31 6,-30 1,-17 v -9 l 2,-3 2,-3 3,-2 4,-1 8,-1 h 16 l 31,5 62,13 15,2 h 8 9 l 1,1 1,2 -1,4 -1,8 -1,15 4,127 2,32 3,31 10,63 4,31 4,32 5,63 5,63 3,63 v 32 l -2,32 -4,31 -1,16 -1,16 2,31 3,32 1,15 v 16 5 l -1,4 -2,2 -4,1 -4,-1 -3,-2 -7,-4 -16,-4 -15,-2 -16,-1 -16,1 -31,4 -16,3 -16,1 h -16 l -15,-2 -16,-1 h -16 l -16,3 -7,2 -7,5 -12,10 -6,5 -7,3 -5,2 -3,-1 -3,-3 -1,-4 -1,-16 -2,-31 -2,-32 -1,-32"
        />
        <path
          class="body-part"
          id="ankle-left-front"
          style="
            fill: #aaaaaa;
            stroke: #ff0000;
            stroke-width: 6;
            stroke-linecap: round;
            stroke-linejoin: round;
            stroke-miterlimit: 10;
            stroke-dasharray: none;
            stroke-opacity: 1;
          "
          d="m 2587,826 5,23 7,22 11,21 5,10 1,6 v 6 l -3,5 -2,1 -3,1 -12,-3 -23,1 -46,8 -23,6 -11,2 h -11 -12 -6 l -5,-2 -4,-5 -2,-5 v -12 -23 -12 l -1,-11 -4,-23 -3,-11 -6,-10 -6,-10 -4,-11 -5,-10 -1,-7 2,-2 2,-1 47,1 12,-1 11,-1 11,-3 11,-6 19,-13 10,-6 8,-8 16,-18 16,-16 4,-4 3,-2 2,-1 3,1 2,3 1,6 -2,23 -4,23 -6,22 -4,23 -1,12 1,11"
        />
        <path
          class="body-part"
          id="ankle-right-front"
          style="
            fill: #aaaaaa;
            stroke: #ff0000;
            stroke-width: 6;
            stroke-linecap: round;
            stroke-linejoin: round;
            stroke-miterlimit: 10;
            stroke-dasharray: none;
            stroke-opacity: 1;
          "
          d="m 2135,826 -5,23 -7,22 -11,21 -5,10 -1,6 v 6 l 3,5 2,1 3,1 12,-3 23,1 46,8 23,6 11,2 h 11 12 6 l 5,-2 4,-5 2,-5 v -12 -23 -12 l 1,-11 4,-23 3,-11 6,-10 6,-10 4,-11 5,-10 1,-7 -2,-2 -2,-1 -47,1 -12,-1 -11,-1 -11,-3 -11,-6 -19,-13 -10,-6 -8,-8 -16,-18 -16,-16 -4,-4 -3,-2 -2,-1 -3,1 -2,3 -1,6 2,23 4,23 6,22 4,23 1,12 -1,11"
        />
        <path
          class="body-part"
          id="foot-left-front"
          style="
            fill: #aaaaaa;
            stroke: #ff0000;
            stroke-width: 6;
            stroke-linecap: round;
            stroke-linejoin: round;
            stroke-miterlimit: 10;
            stroke-dasharray: none;
            stroke-opacity: 1;
          "
          d="m 2645,565 -18,26 -10,13 -3,7 -3,7 -2,16 -1,16 -2,16 -2,7 -3,8 -44,45 -26,18 -13,8 -15,6 -15,4 -16,2 h -15 l -17,-1 -8,-2 -3,-1 -2,-3 -3,-8 v -8 l 1,-16 2,-15 1,-32 5,-31 1,-16 v -16 l -2,-31 -4,-31 -6,-31 -1,-16 3,-15 7,-15 5,-7 5,-6 6,-5 6,-4 8,-3 7,-2 16,-2 16,-1 63,2 32,-3 31,-5 16,-2 h 8 l 8,2 6,5 5,6 10,12 10,12 4,7 2,8 1,8 -1,8 -3,7 -5,6 -13,9 -6,5 -5,6 -18,26"
        />
        <path
          class="body-part"
          id="foot-right-front"
          style="
            fill: #aaaaaa;
            stroke: #ff0000;
            stroke-width: 6;
            stroke-linecap: round;
            stroke-linejoin: round;
            stroke-miterlimit: 10;
            stroke-dasharray: none;
            stroke-opacity: 1;
          "
          d="m 2077,565 18,26 10,13 3,7 3,7 2,16 1,16 2,16 2,7 3,8 44,45 26,18 13,8 15,6 15,4 16,2 h 15 l 17,-1 8,-2 3,-1 2,-3 3,-8 v -8 l -1,-16 -2,-15 -1,-32 -5,-31 -1,-16 v -16 l 2,-31 4,-31 6,-31 1,-16 -3,-15 -7,-15 -5,-7 -5,-6 -6,-5 -6,-4 -8,-3 -7,-2 -16,-2 -16,-1 -63,2 -32,-3 -31,-5 -16,-2 h -8 l -8,2 -6,5 -5,6 -10,12 -10,12 -4,7 -2,8 -1,8 1,8 3,7 5,6 13,9 6,5 5,6 18,26"
        />
      </g>
    </g>
  </g>
</svg>
